<svg data-v-423bf9ae="" xmlns="http://www.w3.org/2000/svg" viewBox="0 0 414 90" class="iconLeft"><!----><!----><!----><g data-v-423bf9ae="" id="59976805-3703-43e5-987f-9e8177ebde3b" fill="#362120" transform="matrix(4.51127813079263,0,0,4.51127813079263,107.37002589555144,11.8421069715492)"><path d="M0.87 10.67L0.87 10.22L1.88 10.22L1.88 10.22Q2.25 10.22 2.25 9.84L2.25 9.84L2.25 1.53L2.25 1.53Q2.25 1.33 2.16 1.24L2.16 1.24L2.16 1.24Q2.07 1.15 1.88 1.15L1.88 1.15L0.87 1.15L0.87 0.70L5.99 0.70L5.99 0.70Q7.15 0.70 8.12 1.32L8.12 1.32L8.12 1.32Q9.09 1.95 9.65 3.06L9.65 3.06L9.65 3.06Q10.22 4.17 10.22 5.60L10.22 5.60L10.22 5.60Q10.22 7.03 9.65 8.19L9.65 8.19L9.65 8.19Q9.09 9.35 8.11 10.01L8.11 10.01L8.11 10.01Q7.14 10.67 5.99 10.67L5.99 10.67L0.87 10.67ZM3.92 10.22L5.94 10.22L5.94 10.22Q6.92 10.22 7.55 9.56L7.55 9.56L7.55 9.56Q8.18 8.89 8.46 7.85L8.46 7.85L8.46 7.85Q8.74 6.80 8.74 5.60L8.74 5.60L8.74 5.60Q8.74 3.72 8.06 2.44L8.06 2.44L8.06 2.44Q7.38 1.15 5.94 1.15L5.94 1.15L3.92 1.15L3.92 1.15Q3.72 1.15 3.63 1.24L3.63 1.24L3.63 1.24Q3.54 1.33 3.54 1.53L3.54 1.53L3.54 9.84L3.54 9.84Q3.54 10.22 3.92 10.22L3.92 10.22ZM14.48 10.84L14.48 10.84Q13.17 10.84 12.38 9.95L12.38 9.95L12.38 9.95Q11.59 9.07 11.59 7.50L11.59 7.50L11.59 7.50Q11.59 6.61 11.94 5.83L11.94 5.83L11.94 5.83Q12.29 5.05 12.91 4.59L12.91 4.59L12.91 4.59Q13.54 4.12 14.31 4.12L14.31 4.12L14.31 4.12Q15.16 4.12 15.71 4.58L15.71 4.58L15.71 4.58Q16.25 5.04 16.50 5.75L16.50 5.75L16.50 5.75Q16.74 6.45 16.74 7.20L16.74 7.20L16.74 7.20Q16.74 7.35 16.65 7.40L16.65 7.40L16.65 7.40Q16.55 7.45 16.31 7.45L16.31 7.45L12.82 7.45L12.82 7.45Q12.82 8.85 13.22 9.67L13.22 9.67L13.22 9.67Q13.62 10.50 14.53 10.50L14.53 10.50L14.53 10.50Q15.18 10.50 15.74 10.01L15.74 10.01L15.74 10.01Q16.31 9.52 16.46 8.48L16.46 8.48L16.80 8.48L16.80 8.48Q16.72 9.51 16.09 10.17L16.09 10.17L16.09 10.17Q15.47 10.84 14.48 10.84L14.48 10.84ZM12.82 7.11L15.54 7.11L15.54 7.11Q15.54 5.99 15.25 5.22L15.25 5.22L15.25 5.22Q14.95 4.45 14.28 4.45L14.28 4.45L14.28 4.45Q13.57 4.45 13.20 5.23L13.20 5.23L13.20 5.23Q12.82 6.01 12.82 7.11L12.82 7.11ZM18.20 10.84L18.20 8.06L18.45 8.06L18.97 9.17L18.97 9.17Q19.73 10.50 20.93 10.50L20.93 10.50L20.93 10.50Q21.57 10.50 21.89 10.19L21.89 10.19L21.89 10.19Q22.20 9.87 22.20 9.32L22.20 9.32L22.20 9.32Q22.20 9.00 21.96 8.74L21.96 8.74L21.96 8.74Q21.71 8.48 21.31 8.33L21.31 8.33L19.71 7.69L19.71 7.69Q18.96 7.38 18.52 6.94L18.52 6.94L18.52 6.94Q18.09 6.51 18.09 5.84L18.09 5.84L18.09 5.84Q18.09 4.98 18.62 4.55L18.62 4.55L18.62 4.55Q19.15 4.12 19.96 4.12L19.96 4.12L19.96 4.12Q20.37 4.12 20.73 4.25L20.73 4.25L20.73 4.25Q21.08 4.38 21.32 4.56L21.32 4.56L21.32 4.56Q21.63 4.79 21.78 4.79L21.78 4.79L21.78 4.79Q21.97 4.79 22.01 4.54L22.01 4.54L22.04 4.26L22.29 4.26L22.29 6.38L22.04 6.38L21.84 5.89L21.84 5.89Q21.52 5.10 20.99 4.77L20.99 4.77L20.99 4.77Q20.47 4.45 19.95 4.45L19.95 4.45L19.95 4.45Q19.43 4.45 19.10 4.71L19.10 4.71L19.10 4.71Q18.76 4.97 18.76 5.43L18.76 5.43L18.76 5.43Q18.76 5.84 19.09 6.10L19.09 6.10L19.09 6.10Q19.42 6.36 19.99 6.59L19.99 6.59L21.50 7.22L21.50 7.22Q22.18 7.50 22.51 7.90L22.51 7.90L22.51 7.90Q22.85 8.30 22.85 9.02L22.85 9.02L22.85 9.02Q22.85 9.95 22.32 10.40L22.32 10.40L22.32 10.40Q21.78 10.84 20.92 10.84L20.92 10.84L20.92 10.84Q20.40 10.84 20.08 10.70L20.08 10.70L20.08 10.70Q19.75 10.56 19.45 10.32L19.45 10.32L19.45 10.32Q19.32 10.22 19.19 10.15L19.19 10.15L19.19 10.15Q19.07 10.08 18.97 10.08L18.97 10.08L18.97 10.08Q18.63 10.08 18.51 10.56L18.51 10.56L18.45 10.84L18.20 10.84ZM25.28 2.55L25.28 2.55Q24.98 2.55 24.77 2.34L24.77 2.34L24.77 2.34Q24.56 2.13 24.56 1.82L24.56 1.82L24.56 1.82Q24.56 1.50 24.77 1.30L24.77 1.30L24.77 1.30Q24.98 1.09 25.28 1.09L25.28 1.09L25.28 1.09Q25.61 1.09 25.81 1.30L25.81 1.30L25.81 1.30Q26.01 1.50 26.01 1.82L26.01 1.82L26.01 1.82Q26.01 2.13 25.81 2.34L25.81 2.34L25.81 2.34Q25.61 2.55 25.28 2.55L25.28 2.55ZM23.97 10.67L23.97 10.33L24.56 10.33L24.56 10.33Q24.72 10.33 24.79 10.26L24.79 10.26L24.79 10.26Q24.86 10.19 24.86 10.02L24.86 10.02L24.86 4.93L24.86 4.93Q24.86 4.76 24.79 4.69L24.79 4.69L24.79 4.69Q24.72 4.62 24.56 4.62L24.56 4.62L23.97 4.62L23.97 4.28L25.87 4.28L25.87 10.02L25.87 10.02Q25.87 10.19 25.94 10.26L25.94 10.26L25.94 10.26Q26.01 10.33 26.18 10.33L26.18 10.33L26.77 10.33L26.77 10.67L23.97 10.67ZM30.97 14L30.97 14Q29.74 14 28.84 13.61L28.84 13.61L28.84 13.61Q27.94 13.22 27.94 12.38L27.94 12.38L27.94 12.38Q27.94 11.86 28.35 11.47L28.35 11.47L28.35 11.47Q28.76 11.07 29.32 10.99L29.32 10.99L29.32 10.95L29.32 10.95Q28.08 10.68 28.08 9.91L28.08 9.91L28.08 9.91Q28.08 9.34 28.53 9.01L28.53 9.01L28.53 9.01Q28.97 8.68 29.61 8.57L29.61 8.57L29.61 8.53L29.61 8.53Q29.02 8.27 28.61 7.76L28.61 7.76L28.61 7.76Q28.20 7.25 28.20 6.41L28.20 6.41L28.20 6.41Q28.20 5.70 28.55 5.18L28.55 5.18L28.55 5.18Q28.90 4.66 29.46 4.39L29.46 4.39L29.46 4.39Q30.03 4.12 30.69 4.12L30.69 4.12L30.69 4.12Q31.09 4.12 31.49 4.25L31.49 4.25L31.49 4.25Q31.89 4.38 32.18 4.56L32.18 4.56L32.18 4.56Q32.47 4.73 32.55 4.84L32.55 4.84L32.55 4.84Q32.68 4.48 32.96 4.30L32.96 4.30L32.96 4.30Q33.24 4.12 33.52 4.12L33.52 4.12L33.52 4.12Q33.99 4.12 34.30 4.40L34.30 4.40L34.30 4.40Q34.61 4.68 34.61 5.12L34.61 5.12L34.61 5.12Q34.61 5.46 34.45 5.67L34.45 5.67L34.45 5.67Q34.29 5.88 34.02 5.88L34.02 5.88L34.02 5.88Q33.80 5.88 33.63 5.76L33.63 5.76L33.63 5.76Q33.46 5.64 33.46 5.38L33.46 5.38L33.46 5.38Q33.46 5.07 33.70 4.93L33.70 4.93L33.70 4.93Q33.78 4.87 33.82 4.82L33.82 4.82L33.82 4.82Q33.85 4.77 33.85 4.68L33.85 4.68L33.85 4.68Q33.85 4.56 33.74 4.51L33.74 4.51L33.74 4.51Q33.63 4.45 33.47 4.45L33.47 4.45L33.47 4.45Q33.22 4.45 33.02 4.66L33.02 4.66L33.02 4.66Q32.82 4.86 32.79 5.12L32.79 5.12L32.79 5.12Q33.18 5.67 33.18 6.41L33.18 6.41L33.18 6.41Q33.18 7.11 32.84 7.64L32.84 7.64L32.84 7.64Q32.51 8.16 31.94 8.44L31.94 8.44L31.94 8.44Q31.37 8.71 30.69 8.71L30.69 8.71L30.69 8.71Q29.89 8.71 29.27 8.93L29.27 8.93L29.27 8.93Q28.64 9.14 28.64 9.65L28.64 9.65L28.64 9.65Q28.64 9.91 28.88 10.01L28.88 10.01L28.88 10.01Q29.12 10.11 29.54 10.11L29.54 10.11L29.54 10.11Q29.83 10.11 30.02 10.09L30.02 10.09L30.02 10.09Q30.18 10.08 30.45 10.08L30.45 10.08L31.89 10.08L31.89 10.08Q32.79 10.08 33.39 10.56L33.39 10.56L33.39 10.56Q33.99 11.05 33.99 11.98L33.99 11.98L33.99 11.98Q33.99 12.96 33.16 13.48L33.16 13.48L33.16 13.48Q32.33 14 30.97 14L30.97 14ZM30.69 8.37L30.69 8.37Q31.33 8.37 31.70 7.85L31.70 7.85L31.70 7.85Q32.06 7.34 32.06 6.41L32.06 6.41L32.06 6.41Q32.06 5.49 31.70 4.97L31.70 4.97L31.70 4.97Q31.33 4.45 30.69 4.45L30.69 4.45L30.69 4.45Q30.04 4.45 29.68 4.97L29.68 4.97L29.68 4.97Q29.32 5.49 29.32 6.41L29.32 6.41L29.32 6.41Q29.32 7.34 29.68 7.85L29.68 7.85L29.68 7.85Q30.04 8.37 30.69 8.37L30.69 8.37ZM30.97 13.66L30.97 13.66Q31.98 13.66 32.73 13.31L32.73 13.31L32.73 13.31Q33.49 12.95 33.49 12.10L33.49 12.10L33.49 12.10Q33.49 11.66 33.23 11.35L33.23 11.35L33.23 11.35Q32.97 11.03 32.33 11.03L32.33 11.03L30.77 11.03L30.77 11.03Q29.88 11.03 29.22 11.33L29.22 11.33L29.22 11.33Q28.56 11.63 28.56 12.35L28.56 12.35L28.56 12.35Q28.56 13.01 29.30 13.34L29.30 13.34L29.30 13.34Q30.04 13.66 30.97 13.66L30.97 13.66ZM35.31 10.67L35.31 10.33L35.90 10.33L35.90 10.33Q36.06 10.33 36.13 10.26L36.13 10.26L36.13 10.26Q36.20 10.19 36.20 10.02L36.20 10.02L36.20 4.93L36.20 4.93Q36.20 4.76 36.13 4.69L36.13 4.69L36.13 4.69Q36.06 4.62 35.90 4.62L35.90 4.62L35.31 4.62L35.31 4.28L37.21 4.28L37.21 5.43L37.27 5.45L37.27 5.45Q37.59 4.77 38.07 4.45L38.07 4.45L38.07 4.45Q38.54 4.12 39.12 4.12L39.12 4.12L39.12 4.12Q40.14 4.12 40.57 4.75L40.57 4.75L40.57 4.75Q40.99 5.38 40.99 6.26L40.99 6.26L40.99 10.02L40.99 10.02Q40.99 10.19 41.06 10.26L41.06 10.26L41.06 10.26Q41.13 10.33 41.30 10.33L41.30 10.33L41.89 10.33L41.89 10.67L39.09 10.67L39.09 10.33L39.68 10.33L39.68 10.33Q39.84 10.33 39.91 10.26L39.91 10.26L39.91 10.26Q39.98 10.19 39.98 10.02L39.98 10.02L39.98 5.99L39.98 5.99Q39.98 5.38 39.74 4.94L39.74 4.94L39.74 4.94Q39.49 4.51 38.91 4.51L38.91 4.51L38.91 4.51Q38.42 4.51 38.03 4.85L38.03 4.85L38.03 4.85Q37.65 5.19 37.43 5.79L37.43 5.79L37.43 5.79Q37.21 6.38 37.21 7.11L37.21 7.11L37.21 10.02L37.21 10.02Q37.21 10.19 37.28 10.26L37.28 10.26L37.28 10.26Q37.35 10.33 37.52 10.33L37.52 10.33L38.11 10.33L38.11 10.67L35.31 10.67ZM44.30 10.84L44.30 10.84Q43.92 10.84 43.67 10.59L43.67 10.59L43.67 10.59Q43.43 10.35 43.43 9.97L43.43 9.97L43.43 9.97Q43.43 9.59 43.67 9.35L43.67 9.35L43.67 9.35Q43.92 9.10 44.30 9.10L44.30 9.10L44.30 9.10Q44.67 9.10 44.92 9.35L44.92 9.35L44.92 9.35Q45.16 9.59 45.16 9.97L45.16 9.97L45.16 9.97Q45.16 10.35 44.92 10.59L44.92 10.59L44.92 10.59Q44.67 10.84 44.30 10.84L44.30 10.84ZM47.12 10.67L47.12 10.22L48.13 10.22L48.13 10.22Q48.51 10.22 48.51 9.84L48.51 9.84L48.51 1.53L48.51 1.53Q48.51 1.33 48.42 1.24L48.42 1.24L48.42 1.24Q48.33 1.15 48.13 1.15L48.13 1.15L47.12 1.15L47.12 0.70L51.80 0.70L51.80 0.70Q52.78 0.70 53.54 1.03L53.54 1.03L53.54 1.03Q54.31 1.36 54.73 1.95L54.73 1.95L54.73 1.95Q55.16 2.55 55.16 3.30L55.16 3.30L55.16 3.30Q55.16 4.07 54.73 4.68L54.73 4.68L54.73 4.68Q54.31 5.28 53.54 5.62L53.54 5.62L53.54 5.62Q52.78 5.96 51.80 5.96L51.80 5.96L49.80 5.96L49.80 9.84L49.80 9.84Q49.80 10.04 49.88 10.13L49.88 10.13L49.88 10.13Q49.97 10.22 50.18 10.22L50.18 10.22L51.41 10.22L51.41 10.67L47.12 10.67ZM49.80 5.52L51.98 5.52L51.98 5.52Q52.74 5.52 53.21 4.87L53.21 4.87L53.21 4.87Q53.68 4.21 53.68 3.30L53.68 3.30L53.68 3.30Q53.68 2.39 53.21 1.77L53.21 1.77L53.21 1.77Q52.75 1.15 51.98 1.15L51.98 1.15L50.18 1.15L50.18 1.15Q49.98 1.15 49.89 1.24L49.89 1.24L49.89 1.24Q49.80 1.33 49.80 1.53L49.80 1.53L49.80 5.52ZM56.31 10.67L56.31 10.33L56.90 10.33L56.90 10.33Q57.06 10.33 57.13 10.26L57.13 10.26L57.13 10.26Q57.20 10.19 57.20 10.02L57.20 10.02L57.20 4.93L57.20 4.93Q57.20 4.76 57.13 4.69L57.13 4.69L57.13 4.69Q57.06 4.62 56.90 4.62L56.90 4.62L56.31 4.62L56.31 4.28L58.21 4.28L58.21 5.68L58.27 5.70L58.27 5.70Q58.56 4.97 59.03 4.54L59.03 4.54L59.03 4.54Q59.50 4.12 60.03 4.12L60.03 4.12L60.03 4.12Q60.56 4.12 60.90 4.42L60.90 4.42L60.90 4.42Q61.24 4.73 61.24 5.26L61.24 5.26L61.24 5.26Q61.24 5.57 61.02 5.87L61.02 5.87L61.02 5.87Q60.80 6.16 60.47 6.16L60.47 6.16L60.47 6.16Q60.20 6.16 60.02 6.02L60.02 6.02L60.02 6.02Q59.84 5.88 59.84 5.63L59.84 5.63L59.84 5.63Q59.84 5.33 60.12 5.12L60.12 5.12L60.12 5.12Q60.24 5.04 60.31 4.97L60.31 4.97L60.31 4.97Q60.37 4.90 60.37 4.79L60.37 4.79L60.37 4.79Q60.37 4.66 60.25 4.59L60.25 4.59L60.25 4.59Q60.13 4.51 59.92 4.51L59.92 4.51L59.92 4.51Q59.49 4.51 59.09 4.93L59.09 4.93L59.09 4.93Q58.69 5.35 58.45 6.02L58.45 6.02L58.45 6.02Q58.21 6.69 58.21 7.42L58.21 7.42L58.21 10.02L58.21 10.02Q58.21 10.19 58.28 10.26L58.28 10.26L58.28 10.26Q58.35 10.33 58.52 10.33L58.52 10.33L59.11 10.33L59.11 10.67L56.31 10.67ZM64.99 10.84L64.99 10.84Q64.22 10.84 63.57 10.38L63.57 10.38L63.57 10.38Q62.93 9.93 62.56 9.16L62.56 9.16L62.56 9.16Q62.19 8.39 62.19 7.48L62.19 7.48L62.19 7.48Q62.19 6.57 62.56 5.80L62.56 5.80L62.56 5.80Q62.93 5.03 63.57 4.57L63.57 4.57L63.57 4.57Q64.22 4.12 64.99 4.12L64.99 4.12L64.99 4.12Q65.76 4.12 66.40 4.57L66.40 4.57L66.40 4.57Q67.05 5.03 67.42 5.80L67.42 5.80L67.42 5.80Q67.79 6.57 67.79 7.48L67.79 7.48L67.79 7.48Q67.79 8.39 67.42 9.16L67.42 9.16L67.42 9.16Q67.05 9.93 66.40 10.38L66.40 10.38L66.40 10.38Q65.76 10.84 64.99 10.84L64.99 10.84ZM64.99 10.50L64.99 10.50Q65.83 10.50 66.19 9.71L66.19 9.71L66.19 9.71Q66.56 8.92 66.56 7.48L66.56 7.48L66.56 7.48Q66.56 6.03 66.19 5.24L66.19 5.24L66.19 5.24Q65.83 4.45 64.99 4.45L64.99 4.45L64.99 4.45Q64.15 4.45 63.78 5.24L63.78 5.24L63.78 5.24Q63.42 6.03 63.42 7.48L63.42 7.48L63.42 7.48Q63.42 8.92 63.78 9.71L63.78 9.71L63.78 9.71Q64.15 10.50 64.99 10.50L64.99 10.50Z"></path></g><defs data-v-423bf9ae=""><linearGradient data-v-423bf9ae="" gradientTransform="rotate(25)" id="a49ae763-ff87-4124-90ad-818df95e5811" x1="0%" y1="0%" x2="100%" y2="0%"><stop data-v-423bf9ae="" offset="0%" style="stop-color: rgb(90, 14, 29); stop-opacity: 1;"></stop><stop data-v-423bf9ae="" offset="100%" style="stop-color: rgb(179, 153, 132); stop-opacity: 1;"></stop></linearGradient></defs><g data-v-423bf9ae="" id="3bdc4051-511a-4946-913f-22325e7d45c1" transform="matrix(2.852072528086791,0,0,2.852072528086791,0.3618419448213217,-0.41116010653409063)" stroke="none" fill="url(#a49ae763-ff87-4124-90ad-818df95e5811)"><path d="M16 23.787L8.102 16 16 8.213 23.898 16 16 23.787zM9.525 16L16 22.383 22.475 16 16 9.617 9.525 16z"></path><path d="M15.915 31.778L-.005 16.084 16.085.222l15.92 15.694-16.09 15.862zM1.419 16.084l14.496 14.29 14.666-14.458-14.496-14.29L1.419 16.084z"></path><path d="M15.5.924h1v30.152h-1z"></path></g><!----></svg>